# MagicaVoxel @ Ephtracy

# group
o 

# material
mtllib rightArm.mtl
usemtl palette

# normals
vn -1 0 0
vn 1 0 0
vn 0 0 1
vn 0 0 -1
vn 0 -1 0
vn 0 1 0

# texcoords
vt 0.0253906 0.5
vt 0.123047 0.5
vt 0.201172 0.5
vt 0.212891 0.5
vt 0.216797 0.5
vt 0.240234 0.5
vt 0.244141 0.5

# verts
v -0.5 -0.6 0.4
v -0.5 -0.6 -0.4
v -0.5 -0.4 0.4
v -0.5 -0.4 -0.4
v -0.5 -0.2 0.4
v -0.5 -0.2 -0.4
v -0.5 -5.96046e-08 0.4
v -0.5 -5.96046e-08 -0.4
v -0.5 0.2 0.4
v -0.5 0.2 -0.4
v -0.5 0.4 0.4
v -0.5 0.4 -0.4
v -0.4 -0.6 0.5
v -0.4 -0.6 0.4
v -0.4 -0.6 -0.4
v -0.4 -0.6 -0.5
v -0.4 -0.4 0.5
v -0.4 -0.4 0.4
v -0.4 -0.4 -0.4
v -0.4 -0.4 -0.5
v -0.4 -0.2 0.5
v -0.4 -0.2 0.4
v -0.4 -0.2 -0.4
v -0.4 -0.2 -0.5
v -0.4 -5.96046e-08 0.5
v -0.4 -5.96046e-08 0.4
v -0.4 -5.96046e-08 -0.4
v -0.4 -5.96046e-08 -0.5
v -0.4 0.2 0.5
v -0.4 0.2 0.4
v -0.4 0.2 -0.4
v -0.4 0.2 -0.5
v -0.4 0.4 0.5
v -0.4 0.4 0.4
v -0.4 0.4 -0.4
v -0.4 0.4 -0.5
v -0.4 1 0.2
v -0.4 1 -0.2
v -0.4 1.2 0.4
v -0.4 1.2 0.2
v -0.4 1.4 -0.2
v -0.4 1.4 -0.4
v -0.4 1.8 0.4
v -0.4 1.8 -0.4
v 0.4 -0.6 0.5
v 0.4 -0.6 0.4
v 0.4 -0.6 -0.4
v 0.4 -0.6 -0.5
v 0.4 -0.5 0.4
v 0.4 -0.5 -0.4
v 0.4 -0.4 0.5
v 0.4 -0.4 0.4
v 0.4 -0.4 -0.4
v 0.4 -0.4 -0.5
v 0.4 -0.2 0.5
v 0.4 -0.2 0.4
v 0.4 -0.2 -0.4
v 0.4 -0.2 -0.5
v 0.4 -5.96046e-08 0.5
v 0.4 -5.96046e-08 0.4
v 0.4 -5.96046e-08 -0.4
v 0.4 -5.96046e-08 -0.5
v 0.4 0.2 0.5
v 0.4 0.2 0.4
v 0.4 0.2 -0.4
v 0.4 0.2 -0.5
v 0.4 0.4 0.5
v 0.4 0.4 0.4
v 0.4 0.4 -0.4
v 0.4 0.4 -0.5
v 0.4 1 -0.2
v 0.4 1 -0.4
v 0.4 1.2 0.4
v 0.4 1.2 -0.2
v 0.4 1.8 0.4
v 0.4 1.8 -0.4
v -0.4 -0.6 0.5
v -0.4 -0.4 0.5
v -0.4 -0.2 0.5
v -0.4 -5.96046e-08 0.5
v -0.4 0.2 0.5
v -0.4 0.4 0.5
v 0 -0.6 0.5
v 0 -0.4 0.5
v 0 -0.2 0.5
v 0 -5.96046e-08 0.5
v 0 0.2 0.5
v 0 0.4 0.5
v 0.4 -0.6 0.5
v 0.4 -0.4 0.5
v 0.4 -0.2 0.5
v 0.4 -5.96046e-08 0.5
v 0.4 0.2 0.5
v 0.4 0.4 0.5
v -0.5 -0.6 0.4
v -0.5 -0.4 0.4
v -0.5 -0.2 0.4
v -0.5 -5.96046e-08 0.4
v -0.5 0.2 0.4
v -0.5 0.4 0.4
v -0.4 -0.6 0.4
v -0.4 -0.4 0.4
v -0.4 -0.2 0.4
v -0.4 -5.96046e-08 0.4
v -0.4 0.2 0.4
v -0.4 0.4 0.4
v -0.4 1.2 0.4
v -0.4 1.8 0.4
v -0.2 1 0.4
v -0.2 1.2 0.4
v 0 -0.4 0.4
v 0 -0.2 0.4
v 0 -5.96046e-08 0.4
v 0 0.2 0.4
v 0 0.4 0.4
v 0 1 0.4
v 0.2 0.4 0.4
v 0.2 1.2 0.4
v 0.4 -0.4 0.4
v 0.4 -0.2 0.4
v 0.4 -5.96046e-08 0.4
v 0.4 0.2 0.4
v 0.4 0.4 0.4
v 0.4 1.2 0.4
v 0.4 1.8 0.4
v -0.5 -0.6 -0.4
v -0.5 -0.4 -0.4
v -0.5 -0.2 -0.4
v -0.5 -5.96046e-08 -0.4
v -0.5 0.2 -0.4
v -0.5 0.4 -0.4
v -0.4 -0.6 -0.4
v -0.4 -0.4 -0.4
v -0.4 -0.2 -0.4
v -0.4 -5.96046e-08 -0.4
v -0.4 0.2 -0.4
v -0.4 0.4 -0.4
v -0.4 1.4 -0.4
v -0.4 1.8 -0.4
v -0.2 1.2 -0.4
v -0.2 1.4 -0.4
v 0.2 1 -0.4
v 0.2 1.2 -0.4
v 0.3 -0.4 -0.4
v 0.3 -0.2 -0.4
v 0.3 -5.96046e-08 -0.4
v 0.3 0.2 -0.4
v 0.4 -0.4 -0.4
v 0.4 -0.2 -0.4
v 0.4 -5.96046e-08 -0.4
v 0.4 0.2 -0.4
v 0.4 0.4 -0.4
v 0.4 1 -0.4
v 0.4 1.8 -0.4
v -0.4 -0.6 -0.5
v -0.4 -0.4 -0.5
v -0.4 -0.2 -0.5
v -0.4 -5.96046e-08 -0.5
v -0.4 0.2 -0.5
v -0.4 0.4 -0.5
v 0.4 -0.6 -0.5
v 0.4 -0.4 -0.5
v 0.4 -0.2 -0.5
v 0.4 -5.96046e-08 -0.5
v 0.4 0.2 -0.5
v 0.4 0.4 -0.5
v -0.4 -0.6 0.5
v 0 -0.6 0.5
v 0.4 -0.6 0.5
v -0.5 -0.6 0.4
v -0.4 -0.6 0.4
v 0 -0.6 0.4
v 0.4 -0.6 0.4
v -0.5 -0.6 -0.4
v -0.4 -0.6 -0.4
v 0.4 -0.6 -0.4
v -0.4 -0.6 -0.5
v 0.4 -0.6 -0.5
v -0.4 -0.2 0.5
v 0 -0.2 0.5
v 0.4 -0.2 0.5
v -0.5 -0.2 0.4
v -0.4 -0.2 0.4
v 0 -0.2 0.4
v 0.4 -0.2 0.4
v -0.5 -0.2 -0.4
v -0.4 -0.2 -0.4
v 0.3 -0.2 -0.4
v 0.4 -0.2 -0.4
v -0.4 -0.2 -0.5
v 0.4 -0.2 -0.5
v -0.4 0.2 0.5
v 0 0.2 0.5
v 0.4 0.2 0.5
v -0.5 0.2 0.4
v -0.4 0.2 0.4
v 0 0.2 0.4
v 0.4 0.2 0.4
v -0.5 0.2 -0.4
v -0.4 0.2 -0.4
v 0.3 0.2 -0.4
v 0.4 0.2 -0.4
v -0.4 0.2 -0.5
v 0.4 0.2 -0.5
v -0.4 -0.4 0.5
v 0 -0.4 0.5
v 0.4 -0.4 0.5
v -0.5 -0.4 0.4
v -0.4 -0.4 0.4
v 0 -0.4 0.4
v 0.4 -0.4 0.4
v -0.5 -0.4 -0.4
v -0.4 -0.4 -0.4
v 0.3 -0.4 -0.4
v 0.4 -0.4 -0.4
v -0.4 -0.4 -0.5
v 0.4 -0.4 -0.5
v -0.4 -5.96046e-08 0.5
v 0 -5.96046e-08 0.5
v 0.4 -5.96046e-08 0.5
v -0.5 -5.96046e-08 0.4
v -0.4 -5.96046e-08 0.4
v 0 -5.96046e-08 0.4
v 0.4 -5.96046e-08 0.4
v -0.5 -5.96046e-08 -0.4
v -0.4 -5.96046e-08 -0.4
v 0.3 -5.96046e-08 -0.4
v 0.4 -5.96046e-08 -0.4
v -0.4 -5.96046e-08 -0.5
v 0.4 -5.96046e-08 -0.5
v -0.4 0.4 0.5
v 0 0.4 0.5
v 0.4 0.4 0.5
v -0.5 0.4 0.4
v -0.4 0.4 0.4
v 0 0.4 0.4
v 0.2 0.4 0.4
v 0.4 0.4 0.4
v -0.5 0.4 -0.4
v -0.4 0.4 -0.4
v 0.4 0.4 -0.4
v -0.4 0.4 -0.5
v 0.4 0.4 -0.5
v -0.4 1.8 0.4
v 0.4 1.8 0.4
v -0.4 1.8 -0.4
v 0.4 1.8 -0.4

# faces
f 3/4/1 2/4/1 1/4/1
f 4/4/1 2/4/1 3/4/1
f 7/4/1 6/4/1 5/4/1
f 8/4/1 6/4/1 7/4/1
f 11/4/1 10/4/1 9/4/1
f 12/4/1 10/4/1 11/4/1
f 17/4/1 14/4/1 13/4/1
f 18/4/1 14/4/1 17/4/1
f 19/4/1 16/4/1 15/4/1
f 20/4/1 16/4/1 19/4/1
f 22/6/1 19/6/1 18/6/1
f 23/6/1 19/6/1 22/6/1
f 25/4/1 22/4/1 21/4/1
f 26/4/1 22/4/1 25/4/1
f 27/4/1 24/4/1 23/4/1
f 28/4/1 24/4/1 27/4/1
f 30/6/1 27/6/1 26/6/1
f 31/6/1 27/6/1 30/6/1
f 33/4/1 30/4/1 29/4/1
f 34/4/1 30/4/1 33/4/1
f 35/4/1 32/4/1 31/4/1
f 36/4/1 32/4/1 35/4/1
f 37/5/1 35/5/1 34/5/1
f 38/5/1 35/5/1 37/5/1
f 39/5/1 37/5/1 34/5/1
f 40/2/1 38/2/1 37/2/1
f 40/5/1 37/5/1 39/5/1
f 41/5/1 35/5/1 38/5/1
f 41/2/1 38/2/1 40/2/1
f 41/2/1 40/2/1 39/2/1
f 42/5/1 35/5/1 41/5/1
f 43/2/1 41/2/1 39/2/1
f 43/2/1 42/2/1 41/2/1
f 44/2/1 42/2/1 43/2/1
f 45/7/2 46/7/2 49/7/2
f 46/1/2 47/1/2 49/1/2
f 47/4/2 48/4/2 50/4/2
f 49/1/2 47/1/2 50/1/2
f 45/7/2 49/7/2 51/7/2
f 49/7/2 50/7/2 51/7/2
f 51/7/2 50/7/2 52/7/2
f 50/4/2 48/4/2 53/4/2
f 52/7/2 50/7/2 53/7/2
f 53/4/2 48/4/2 54/4/2
f 52/3/2 53/3/2 56/3/2
f 56/3/2 53/3/2 57/3/2
f 55/7/2 56/7/2 59/7/2
f 56/7/2 57/7/2 59/7/2
f 59/7/2 57/7/2 60/7/2
f 57/4/2 58/4/2 61/4/2
f 60/7/2 57/7/2 61/7/2
f 61/4/2 58/4/2 62/4/2
f 60/3/2 61/3/2 64/3/2
f 64/3/2 61/3/2 65/3/2
f 63/7/2 64/7/2 67/7/2
f 64/7/2 65/7/2 67/7/2
f 67/7/2 65/7/2 68/7/2
f 65/4/2 66/4/2 69/4/2
f 68/7/2 65/7/2 69/7/2
f 69/4/2 66/4/2 70/4/2
f 68/5/2 69/5/2 71/5/2
f 71/5/2 69/5/2 72/5/2
f 68/5/2 71/5/2 73/5/2
f 71/2/2 72/2/2 74/2/2
f 73/5/2 71/5/2 74/5/2
f 73/2/2 74/2/2 75/2/2
f 74/2/2 72/2/2 76/2/2
f 75/2/2 74/2/2 76/2/2
f 83/4/3 78/4/3 77/4/3
f 84/4/3 78/4/3 83/4/3
f 85/4/3 80/4/3 79/4/3
f 86/4/3 80/4/3 85/4/3
f 87/4/3 82/4/3 81/4/3
f 88/4/3 82/4/3 87/4/3
f 89/7/3 84/7/3 83/7/3
f 90/7/3 84/7/3 89/7/3
f 91/7/3 86/7/3 85/7/3
f 92/7/3 86/7/3 91/7/3
f 93/7/3 88/7/3 87/7/3
f 94/7/3 88/7/3 93/7/3
f 101/4/3 96/4/3 95/4/3
f 102/4/3 96/4/3 101/4/3
f 103/4/3 98/4/3 97/4/3
f 104/4/3 98/4/3 103/4/3
f 105/4/3 100/4/3 99/4/3
f 106/4/3 100/4/3 105/4/3
f 109/5/3 107/5/3 106/5/3
f 110/2/3 108/2/3 107/2/3
f 110/5/3 107/5/3 109/5/3
f 111/6/3 103/6/3 102/6/3
f 112/6/3 103/6/3 111/6/3
f 113/6/3 105/6/3 104/6/3
f 114/6/3 105/6/3 113/6/3
f 115/5/3 109/5/3 106/5/3
f 116/2/3 110/2/3 109/2/3
f 116/5/3 109/5/3 115/5/3
f 117/2/3 116/2/3 115/2/3
f 118/2/3 108/2/3 110/2/3
f 118/2/3 116/2/3 117/2/3
f 118/2/3 110/2/3 116/2/3
f 119/3/3 112/3/3 111/3/3
f 120/3/3 112/3/3 119/3/3
f 121/3/3 114/3/3 113/3/3
f 122/3/3 114/3/3 121/3/3
f 123/5/3 118/5/3 117/5/3
f 124/2/3 108/2/3 118/2/3
f 124/5/3 118/5/3 123/5/3
f 125/2/3 108/2/3 124/2/3
f 126/4/4 127/4/4 132/4/4
f 132/4/4 127/4/4 133/4/4
f 128/4/4 129/4/4 134/4/4
f 134/4/4 129/4/4 135/4/4
f 130/4/4 131/4/4 136/4/4
f 136/4/4 131/4/4 137/4/4
f 137/5/4 138/5/4 140/5/4
f 138/2/4 139/2/4 141/2/4
f 140/5/4 138/5/4 141/5/4
f 137/5/4 140/5/4 142/5/4
f 140/2/4 141/2/4 143/2/4
f 142/5/4 140/5/4 143/5/4
f 133/6/4 134/6/4 144/6/4
f 144/6/4 134/6/4 145/6/4
f 135/6/4 136/6/4 146/6/4
f 146/6/4 136/6/4 147/6/4
f 144/3/4 145/3/4 148/3/4
f 148/3/4 145/3/4 149/3/4
f 146/3/4 147/3/4 150/3/4
f 150/3/4 147/3/4 151/3/4
f 137/5/4 142/5/4 152/5/4
f 142/2/4 143/2/4 153/2/4
f 152/5/4 142/5/4 153/5/4
f 141/2/4 139/2/4 154/2/4
f 153/2/4 143/2/4 154/2/4
f 143/2/4 141/2/4 154/2/4
f 155/4/4 156/4/4 161/4/4
f 161/4/4 156/4/4 162/4/4
f 157/4/4 158/4/4 163/4/4
f 163/4/4 158/4/4 164/4/4
f 159/4/4 160/4/4 165/4/4
f 165/4/4 160/4/4 166/4/4
f 171/4/5 168/4/5 167/4/5
f 172/7/5 169/7/5 168/7/5
f 172/4/5 168/4/5 171/4/5
f 173/7/5 169/7/5 172/7/5
f 174/4/5 171/4/5 170/4/5
f 175/1/5 172/1/5 171/1/5
f 175/4/5 171/4/5 174/4/5
f 175/1/5 173/1/5 172/1/5
f 176/1/5 173/1/5 175/1/5
f 177/4/5 176/4/5 175/4/5
f 178/4/5 176/4/5 177/4/5
f 183/4/5 180/4/5 179/4/5
f 184/7/5 181/7/5 180/7/5
f 184/4/5 180/4/5 183/4/5
f 185/7/5 181/7/5 184/7/5
f 186/4/5 183/4/5 182/4/5
f 187/4/5 183/4/5 186/4/5
f 190/4/5 189/4/5 188/4/5
f 190/4/5 188/4/5 187/4/5
f 191/4/5 189/4/5 190/4/5
f 196/4/5 193/4/5 192/4/5
f 197/7/5 194/7/5 193/7/5
f 197/4/5 193/4/5 196/4/5
f 198/7/5 194/7/5 197/7/5
f 199/4/5 196/4/5 195/4/5
f 200/4/5 196/4/5 199/4/5
f 203/4/5 202/4/5 201/4/5
f 203/4/5 201/4/5 200/4/5
f 204/4/5 202/4/5 203/4/5
f 205/4/6 206/4/6 209/4/6
f 206/7/6 207/7/6 210/7/6
f 209/4/6 206/4/6 210/4/6
f 210/7/6 207/7/6 211/7/6
f 208/4/6 209/4/6 212/4/6
f 212/4/6 209/4/6 213/4/6
f 214/4/6 215/4/6 216/4/6
f 213/4/6 214/4/6 216/4/6
f 216/4/6 215/4/6 217/4/6
f 218/4/6 219/4/6 222/4/6
f 219/7/6 220/7/6 223/7/6
f 222/4/6 219/4/6 223/4/6
f 223/7/6 220/7/6 224/7/6
f 221/4/6 222/4/6 225/4/6
f 225/4/6 222/4/6 226/4/6
f 227/4/6 228/4/6 229/4/6
f 226/4/6 227/4/6 229/4/6
f 229/4/6 228/4/6 230/4/6
f 231/4/6 232/4/6 235/4/6
f 232/7/6 233/7/6 236/7/6
f 235/4/6 232/4/6 236/4/6
f 236/7/6 233/7/6 237/7/6
f 237/7/6 233/7/6 238/7/6
f 234/4/6 235/4/6 239/4/6
f 239/4/6 235/4/6 240/4/6
f 240/4/6 241/4/6 242/4/6
f 242/4/6 241/4/6 243/4/6
f 244/2/6 245/2/6 246/2/6
f 246/2/6 245/2/6 247/2/6
