# MagicaVoxel @ Ephtracy

# group
o 

# material
mtllib rightArm.mtl
usemtl palette

# normals
vn -1 0 0
vn 1 0 0
vn 0 0 1
vn 0 0 -1
vn 0 -1 0
vn 0 1 0

# texcoords
vt 0.0253906 0.5
vt 0.123047 0.5
vt 0.201172 0.5
vt 0.212891 0.5
vt 0.216797 0.5
vt 0.240234 0.5
vt 0.244141 0.5

# verts
v -0.5 -0.6 0.4
v -0.5 -0.6 -0.4
v -0.5 -0.4 0.4
v -0.5 -0.4 -0.4
v -0.5 -0.2 0.4
v -0.5 -0.2 -0.4
v -0.5 -5.96046e-08 0.4
v -0.5 -5.96046e-08 -0.4
v -0.5 0.2 0.4
v -0.5 0.2 -0.4
v -0.5 0.4 0.4
v -0.5 0.4 -0.4
v -0.4 -0.6 0.5
v -0.4 -0.6 0.4
v -0.4 -0.6 -0.4
v -0.4 -0.6 -0.5
v -0.4 -0.4 0.5
v -0.4 -0.4 0.4
v -0.4 -0.4 -0.4
v -0.4 -0.4 -0.5
v -0.4 -0.2 0.5
v -0.4 -0.2 0.4
v -0.4 -0.2 -0.4
v -0.4 -0.2 -0.5
v -0.4 -5.96046e-08 0.5
v -0.4 -5.96046e-08 0.4
v -0.4 -5.96046e-08 -0.4
v -0.4 -5.96046e-08 -0.5
v -0.4 0.2 0.5
v -0.4 0.2 0.4
v -0.4 0.2 -0.4
v -0.4 0.2 -0.5
v -0.4 0.4 0.5
v -0.4 0.4 0.4
v -0.4 0.4 -0.4
v -0.4 0.4 -0.5
v -0.4 1 0.2
v -0.4 1 -0.2
v -0.4 1.2 0.4
v -0.4 1.2 0.2
v -0.4 1.4 -0.2
v -0.4 1.4 -0.4
v -0.4 1.8 0.4
v -0.4 1.8 -0.4
v 0.4 -0.6 0.5
v 0.4 -0.6 0.4
v 0.4 -0.6 -0.4
v 0.4 -0.6 -0.5
v 0.4 -0.4 0.5
v 0.4 -0.4 0.4
v 0.4 -0.4 -0.4
v 0.4 -0.4 -0.5
v 0.4 -0.2 0.5
v 0.4 -0.2 0.4
v 0.4 -0.2 -0.4
v 0.4 -0.2 -0.5
v 0.4 -5.96046e-08 0.5
v 0.4 -5.96046e-08 0.4
v 0.4 -5.96046e-08 0.2
v 0.4 -5.96046e-08 -0.2
v 0.4 -5.96046e-08 -0.4
v 0.4 -5.96046e-08 -0.5
v 0.4 0.2 0.5
v 0.4 0.2 0.4
v 0.4 0.2 0.2
v 0.4 0.2 -0.2
v 0.4 0.2 -0.4
v 0.4 0.2 -0.5
v 0.4 0.4 0.5
v 0.4 0.4 0.4
v 0.4 0.4 -0.4
v 0.4 0.4 -0.5
v 0.4 0.6 0.4
v 0.4 0.6 0.2
v 0.4 0.6 -0.2
v 0.4 0.6 -0.4
v 0.4 0.8 0.4
v 0.4 0.8 0.2
v 0.4 0.8 -0.2
v 0.4 0.8 -0.4
v 0.4 1 -0.2
v 0.4 1 -0.4
v 0.4 1.2 0.4
v 0.4 1.2 -0.2
v 0.4 1.8 0.4
v 0.4 1.8 -0.4
v 0.5 -0.6 0.4
v 0.5 -0.6 -0.4
v 0.5 -0.4 0.4
v 0.5 -0.4 -0.4
v 0.5 -0.2 0.4
v 0.5 -0.2 -0.4
v 0.5 -5.96046e-08 0.4
v 0.5 -5.96046e-08 0.2
v 0.5 -5.96046e-08 -0.2
v 0.5 -5.96046e-08 -0.4
v 0.5 0.2 0.4
v 0.5 0.2 0.2
v 0.5 0.2 -0.2
v 0.5 0.2 -0.4
v 0.5 0.4 0.4
v 0.5 0.4 -0.4
v 0.5 0.6 0.4
v 0.5 0.6 0.2
v 0.5 0.6 -0.2
v 0.5 0.6 -0.4
v 0.5 0.8 0.4
v 0.5 0.8 0.2
v 0.5 0.8 -0.2
v 0.5 0.8 -0.4
v -0.4 -0.6 0.5
v -0.4 -0.4 0.5
v -0.4 -0.2 0.5
v -0.4 -5.96046e-08 0.5
v -0.4 0.2 0.5
v -0.4 0.4 0.5
v 0 -0.6 0.5
v 0 -0.4 0.5
v 0 -0.2 0.5
v 0 -5.96046e-08 0.5
v 0 0.2 0.5
v 0 0.4 0.5
v 0.4 -0.6 0.5
v 0.4 -0.4 0.5
v 0.4 -0.2 0.5
v 0.4 -5.96046e-08 0.5
v 0.4 0.2 0.5
v 0.4 0.4 0.5
v -0.5 -0.6 0.4
v -0.5 -0.4 0.4
v -0.5 -0.2 0.4
v -0.5 -5.96046e-08 0.4
v -0.5 0.2 0.4
v -0.5 0.4 0.4
v -0.4 -0.6 0.4
v -0.4 -0.4 0.4
v -0.4 -0.2 0.4
v -0.4 -5.96046e-08 0.4
v -0.4 0.2 0.4
v -0.4 0.4 0.4
v -0.4 1.2 0.4
v -0.4 1.8 0.4
v -0.2 1 0.4
v -0.2 1.2 0.4
v 0 -0.4 0.4
v 0 -0.2 0.4
v 0 -5.96046e-08 0.4
v 0 0.2 0.4
v 0 0.4 0.4
v 0 1 0.4
v 0.2 0.4 0.4
v 0.2 1.2 0.4
v 0.4 -0.6 0.4
v 0.4 -0.4 0.4
v 0.4 -0.2 0.4
v 0.4 -5.96046e-08 0.4
v 0.4 0.2 0.4
v 0.4 0.4 0.4
v 0.4 0.6 0.4
v 0.4 0.8 0.4
v 0.4 1.2 0.4
v 0.4 1.8 0.4
v 0.5 -0.6 0.4
v 0.5 -0.4 0.4
v 0.5 -0.2 0.4
v 0.5 -5.96046e-08 0.4
v 0.5 0.2 0.4
v 0.5 0.4 0.4
v 0.5 0.6 0.4
v 0.5 0.8 0.4
v 0.4 -5.96046e-08 -0.2
v 0.4 0.2 -0.2
v 0.4 0.6 -0.2
v 0.4 0.8 -0.2
v 0.5 -5.96046e-08 -0.2
v 0.5 0.2 -0.2
v 0.5 0.6 -0.2
v 0.5 0.8 -0.2
v 0.4 -5.96046e-08 0.2
v 0.4 0.2 0.2
v 0.4 0.6 0.2
v 0.4 0.8 0.2
v 0.5 -5.96046e-08 0.2
v 0.5 0.2 0.2
v 0.5 0.6 0.2
v 0.5 0.8 0.2
v -0.5 -0.6 -0.4
v -0.5 -0.4 -0.4
v -0.5 -0.2 -0.4
v -0.5 -5.96046e-08 -0.4
v -0.5 0.2 -0.4
v -0.5 0.4 -0.4
v -0.4 -0.6 -0.4
v -0.4 -0.4 -0.4
v -0.4 -0.2 -0.4
v -0.4 -5.96046e-08 -0.4
v -0.4 0.2 -0.4
v -0.4 0.4 -0.4
v -0.4 1.4 -0.4
v -0.4 1.8 -0.4
v -0.2 1.2 -0.4
v -0.2 1.4 -0.4
v 0.2 1 -0.4
v 0.2 1.2 -0.4
v 0.3 -0.4 -0.4
v 0.3 -0.2 -0.4
v 0.3 -5.96046e-08 -0.4
v 0.3 0.2 -0.4
v 0.4 -0.6 -0.4
v 0.4 -0.4 -0.4
v 0.4 -0.2 -0.4
v 0.4 -5.96046e-08 -0.4
v 0.4 0.2 -0.4
v 0.4 0.4 -0.4
v 0.4 0.6 -0.4
v 0.4 0.8 -0.4
v 0.4 1 -0.4
v 0.4 1.8 -0.4
v 0.5 -0.6 -0.4
v 0.5 -0.4 -0.4
v 0.5 -0.2 -0.4
v 0.5 -5.96046e-08 -0.4
v 0.5 0.2 -0.4
v 0.5 0.4 -0.4
v 0.5 0.6 -0.4
v 0.5 0.8 -0.4
v -0.4 -0.6 -0.5
v -0.4 -0.4 -0.5
v -0.4 -0.2 -0.5
v -0.4 -5.96046e-08 -0.5
v -0.4 0.2 -0.5
v -0.4 0.4 -0.5
v 0.4 -0.6 -0.5
v 0.4 -0.4 -0.5
v 0.4 -0.2 -0.5
v 0.4 -5.96046e-08 -0.5
v 0.4 0.2 -0.5
v 0.4 0.4 -0.5
v -0.4 -0.6 0.5
v 0 -0.6 0.5
v 0.4 -0.6 0.5
v -0.5 -0.6 0.4
v -0.4 -0.6 0.4
v 0 -0.6 0.4
v 0.4 -0.6 0.4
v 0.5 -0.6 0.4
v -0.5 -0.6 -0.4
v -0.4 -0.6 -0.4
v 0.4 -0.6 -0.4
v 0.5 -0.6 -0.4
v -0.4 -0.6 -0.5
v 0.4 -0.6 -0.5
v -0.4 -0.2 0.5
v 0 -0.2 0.5
v 0.4 -0.2 0.5
v -0.5 -0.2 0.4
v -0.4 -0.2 0.4
v 0 -0.2 0.4
v 0.4 -0.2 0.4
v 0.5 -0.2 0.4
v -0.5 -0.2 -0.4
v -0.4 -0.2 -0.4
v 0.3 -0.2 -0.4
v 0.4 -0.2 -0.4
v 0.5 -0.2 -0.4
v -0.4 -0.2 -0.5
v 0.4 -0.2 -0.5
v -0.4 0.2 0.5
v 0 0.2 0.5
v 0.4 0.2 0.5
v -0.5 0.2 0.4
v -0.4 0.2 0.4
v 0 0.2 0.4
v 0.4 0.2 0.4
v 0.4 0.2 0.2
v 0.5 0.2 0.2
v 0.4 0.2 -0.2
v 0.5 0.2 -0.2
v -0.5 0.2 -0.4
v -0.4 0.2 -0.4
v 0.3 0.2 -0.4
v 0.4 0.2 -0.4
v -0.4 0.2 -0.5
v 0.4 0.2 -0.5
v 0.4 0.6 0.4
v 0.5 0.6 0.4
v 0.4 0.6 0.2
v 0.5 0.6 0.2
v 0.4 0.6 -0.2
v 0.5 0.6 -0.2
v 0.4 0.6 -0.4
v 0.5 0.6 -0.4
v -0.4 -0.4 0.5
v 0 -0.4 0.5
v 0.4 -0.4 0.5
v -0.5 -0.4 0.4
v -0.4 -0.4 0.4
v 0 -0.4 0.4
v 0.4 -0.4 0.4
v 0.5 -0.4 0.4
v -0.5 -0.4 -0.4
v -0.4 -0.4 -0.4
v 0.3 -0.4 -0.4
v 0.4 -0.4 -0.4
v 0.5 -0.4 -0.4
v -0.4 -0.4 -0.5
v 0.4 -0.4 -0.5
v -0.4 -5.96046e-08 0.5
v 0 -5.96046e-08 0.5
v 0.4 -5.96046e-08 0.5
v -0.5 -5.96046e-08 0.4
v -0.4 -5.96046e-08 0.4
v 0 -5.96046e-08 0.4
v 0.4 -5.96046e-08 0.4
v 0.4 -5.96046e-08 0.2
v 0.5 -5.96046e-08 0.2
v 0.4 -5.96046e-08 -0.2
v 0.5 -5.96046e-08 -0.2
v -0.5 -5.96046e-08 -0.4
v -0.4 -5.96046e-08 -0.4
v 0.3 -5.96046e-08 -0.4
v 0.4 -5.96046e-08 -0.4
v -0.4 -5.96046e-08 -0.5
v 0.4 -5.96046e-08 -0.5
v -0.4 0.4 0.5
v 0 0.4 0.5
v 0.4 0.4 0.5
v -0.5 0.4 0.4
v -0.4 0.4 0.4
v 0 0.4 0.4
v 0.2 0.4 0.4
v 0.4 0.4 0.4
v 0.5 0.4 0.4
v -0.5 0.4 -0.4
v -0.4 0.4 -0.4
v 0.4 0.4 -0.4
v 0.5 0.4 -0.4
v -0.4 0.4 -0.5
v 0.4 0.4 -0.5
v 0.4 0.8 0.4
v 0.5 0.8 0.4
v 0.4 0.8 0.2
v 0.5 0.8 0.2
v 0.4 0.8 -0.2
v 0.5 0.8 -0.2
v 0.4 0.8 -0.4
v 0.5 0.8 -0.4
v -0.4 1.8 0.4
v 0.4 1.8 0.4
v -0.4 1.8 -0.4
v 0.4 1.8 -0.4

# faces
f 3/4/1 2/4/1 1/4/1
f 4/4/1 2/4/1 3/4/1
f 7/4/1 6/4/1 5/4/1
f 8/4/1 6/4/1 7/4/1
f 11/4/1 10/4/1 9/4/1
f 12/4/1 10/4/1 11/4/1
f 17/4/1 14/4/1 13/4/1
f 18/4/1 14/4/1 17/4/1
f 19/4/1 16/4/1 15/4/1
f 20/4/1 16/4/1 19/4/1
f 22/6/1 19/6/1 18/6/1
f 23/6/1 19/6/1 22/6/1
f 25/4/1 22/4/1 21/4/1
f 26/4/1 22/4/1 25/4/1
f 27/4/1 24/4/1 23/4/1
f 28/4/1 24/4/1 27/4/1
f 30/6/1 27/6/1 26/6/1
f 31/6/1 27/6/1 30/6/1
f 33/4/1 30/4/1 29/4/1
f 34/4/1 30/4/1 33/4/1
f 35/4/1 32/4/1 31/4/1
f 36/4/1 32/4/1 35/4/1
f 37/5/1 35/5/1 34/5/1
f 38/5/1 35/5/1 37/5/1
f 39/5/1 37/5/1 34/5/1
f 40/2/1 38/2/1 37/2/1
f 40/5/1 37/5/1 39/5/1
f 41/5/1 35/5/1 38/5/1
f 41/2/1 38/2/1 40/2/1
f 41/2/1 40/2/1 39/2/1
f 42/5/1 35/5/1 41/5/1
f 43/2/1 41/2/1 39/2/1
f 43/2/1 42/2/1 41/2/1
f 44/2/1 42/2/1 43/2/1
f 45/7/2 46/7/2 49/7/2
f 49/7/2 46/7/2 50/7/2
f 47/4/2 48/4/2 51/4/2
f 51/4/2 48/4/2 52/4/2
f 50/3/2 51/3/2 54/3/2
f 54/3/2 51/3/2 55/3/2
f 53/7/2 54/7/2 57/7/2
f 57/7/2 54/7/2 58/7/2
f 55/4/2 56/4/2 61/4/2
f 61/4/2 56/4/2 62/4/2
f 59/3/2 60/3/2 65/3/2
f 65/3/2 60/3/2 66/3/2
f 63/7/2 64/7/2 69/7/2
f 69/7/2 64/7/2 70/7/2
f 67/4/2 68/4/2 71/4/2
f 71/4/2 68/4/2 72/4/2
f 70/5/2 71/5/2 73/5/2
f 73/5/2 71/5/2 74/5/2
f 74/5/2 71/5/2 75/5/2
f 75/5/2 71/5/2 76/5/2
f 74/5/2 75/5/2 78/5/2
f 78/5/2 75/5/2 79/5/2
f 77/5/2 78/5/2 81/5/2
f 79/5/2 80/5/2 81/5/2
f 78/5/2 79/5/2 81/5/2
f 81/5/2 80/5/2 82/5/2
f 77/5/2 81/5/2 83/5/2
f 81/2/2 82/2/2 84/2/2
f 83/5/2 81/5/2 84/5/2
f 83/2/2 84/2/2 85/2/2
f 84/2/2 82/2/2 86/2/2
f 85/2/2 84/2/2 86/2/2
f 87/7/2 88/7/2 89/7/2
f 89/7/2 88/7/2 90/7/2
f 91/7/2 92/7/2 93/7/2
f 93/7/2 92/7/2 94/7/2
f 94/7/2 92/7/2 95/7/2
f 95/7/2 92/7/2 96/7/2
f 93/3/2 94/3/2 97/3/2
f 97/3/2 94/3/2 98/3/2
f 95/3/2 96/3/2 99/3/2
f 99/3/2 96/3/2 100/3/2
f 97/7/2 98/7/2 101/7/2
f 98/7/2 99/7/2 101/7/2
f 99/7/2 100/7/2 101/7/2
f 101/7/2 100/7/2 102/7/2
f 103/3/2 104/3/2 107/3/2
f 107/3/2 104/3/2 108/3/2
f 105/3/2 106/3/2 109/3/2
f 109/3/2 106/3/2 110/3/2
f 117/4/3 112/4/3 111/4/3
f 118/4/3 112/4/3 117/4/3
f 119/4/3 114/4/3 113/4/3
f 120/4/3 114/4/3 119/4/3
f 121/4/3 116/4/3 115/4/3
f 122/4/3 116/4/3 121/4/3
f 123/7/3 118/7/3 117/7/3
f 124/7/3 118/7/3 123/7/3
f 125/7/3 120/7/3 119/7/3
f 126/7/3 120/7/3 125/7/3
f 127/7/3 122/7/3 121/7/3
f 128/7/3 122/7/3 127/7/3
f 135/4/3 130/4/3 129/4/3
f 136/4/3 130/4/3 135/4/3
f 137/4/3 132/4/3 131/4/3
f 138/4/3 132/4/3 137/4/3
f 139/4/3 134/4/3 133/4/3
f 140/4/3 134/4/3 139/4/3
f 143/5/3 141/5/3 140/5/3
f 144/2/3 142/2/3 141/2/3
f 144/5/3 141/5/3 143/5/3
f 145/6/3 137/6/3 136/6/3
f 146/6/3 137/6/3 145/6/3
f 147/6/3 139/6/3 138/6/3
f 148/6/3 139/6/3 147/6/3
f 149/5/3 143/5/3 140/5/3
f 150/2/3 144/2/3 143/2/3
f 150/5/3 143/5/3 149/5/3
f 151/2/3 150/2/3 149/2/3
f 152/2/3 142/2/3 144/2/3
f 152/2/3 150/2/3 151/2/3
f 152/2/3 144/2/3 150/2/3
f 154/3/3 146/3/3 145/3/3
f 155/3/3 146/3/3 154/3/3
f 156/3/3 148/3/3 147/3/3
f 157/3/3 148/3/3 156/3/3
f 158/5/3 152/5/3 151/5/3
f 159/5/3 152/5/3 158/5/3
f 160/5/3 152/5/3 159/5/3
f 161/2/3 142/2/3 152/2/3
f 161/5/3 152/5/3 160/5/3
f 162/2/3 142/2/3 161/2/3
f 163/7/3 154/7/3 153/7/3
f 164/7/3 154/7/3 163/7/3
f 165/7/3 156/7/3 155/7/3
f 166/3/3 157/3/3 156/3/3
f 166/7/3 156/7/3 165/7/3
f 167/7/3 158/7/3 157/7/3
f 167/3/3 157/3/3 166/3/3
f 168/7/3 158/7/3 167/7/3
f 169/3/3 160/3/3 159/3/3
f 170/3/3 160/3/3 169/3/3
f 175/3/3 172/3/3 171/3/3
f 176/3/3 172/3/3 175/3/3
f 177/3/3 174/3/3 173/3/3
f 178/3/3 174/3/3 177/3/3
f 179/3/4 180/3/4 183/3/4
f 183/3/4 180/3/4 184/3/4
f 181/3/4 182/3/4 185/3/4
f 185/3/4 182/3/4 186/3/4
f 187/4/4 188/4/4 193/4/4
f 193/4/4 188/4/4 194/4/4
f 189/4/4 190/4/4 195/4/4
f 195/4/4 190/4/4 196/4/4
f 191/4/4 192/4/4 197/4/4
f 197/4/4 192/4/4 198/4/4
f 198/5/4 199/5/4 201/5/4
f 199/2/4 200/2/4 202/2/4
f 201/5/4 199/5/4 202/5/4
f 198/5/4 201/5/4 203/5/4
f 201/2/4 202/2/4 204/2/4
f 203/5/4 201/5/4 204/5/4
f 194/6/4 195/6/4 205/6/4
f 205/6/4 195/6/4 206/6/4
f 196/6/4 197/6/4 207/6/4
f 207/6/4 197/6/4 208/6/4
f 205/3/4 206/3/4 210/3/4
f 210/3/4 206/3/4 211/3/4
f 207/3/4 208/3/4 212/3/4
f 212/3/4 208/3/4 213/3/4
f 198/5/4 203/5/4 214/5/4
f 214/5/4 203/5/4 215/5/4
f 215/5/4 203/5/4 216/5/4
f 203/2/4 204/2/4 217/2/4
f 216/5/4 203/5/4 217/5/4
f 202/2/4 200/2/4 218/2/4
f 217/2/4 204/2/4 218/2/4
f 204/2/4 202/2/4 218/2/4
f 209/7/4 210/7/4 219/7/4
f 219/7/4 210/7/4 220/7/4
f 211/7/4 212/7/4 221/7/4
f 212/3/4 213/3/4 222/3/4
f 221/7/4 212/7/4 222/7/4
f 213/7/4 214/7/4 223/7/4
f 222/3/4 213/3/4 223/3/4
f 223/7/4 214/7/4 224/7/4
f 215/3/4 216/3/4 225/3/4
f 225/3/4 216/3/4 226/3/4
f 227/4/4 228/4/4 233/4/4
f 233/4/4 228/4/4 234/4/4
f 229/4/4 230/4/4 235/4/4
f 235/4/4 230/4/4 236/4/4
f 231/4/4 232/4/4 237/4/4
f 237/4/4 232/4/4 238/4/4
f 243/4/5 240/4/5 239/4/5
f 244/7/5 241/7/5 240/7/5
f 244/4/5 240/4/5 243/4/5
f 245/7/5 241/7/5 244/7/5
f 247/4/5 243/4/5 242/4/5
f 248/1/5 244/1/5 243/1/5
f 248/4/5 243/4/5 247/4/5
f 248/1/5 245/1/5 244/1/5
f 249/7/5 246/7/5 245/7/5
f 249/1/5 245/1/5 248/1/5
f 250/7/5 246/7/5 249/7/5
f 251/4/5 249/4/5 248/4/5
f 252/4/5 249/4/5 251/4/5
f 257/4/5 254/4/5 253/4/5
f 258/7/5 255/7/5 254/7/5
f 258/4/5 254/4/5 257/4/5
f 259/7/5 255/7/5 258/7/5
f 261/4/5 257/4/5 256/4/5
f 262/4/5 257/4/5 261/4/5
f 264/7/5 260/7/5 259/7/5
f 265/7/5 260/7/5 264/7/5
f 266/4/5 263/4/5 262/4/5
f 266/4/5 264/4/5 263/4/5
f 267/4/5 264/4/5 266/4/5
f 272/4/5 269/4/5 268/4/5
f 273/7/5 270/7/5 269/7/5
f 273/4/5 269/4/5 272/4/5
f 274/7/5 270/7/5 273/7/5
f 277/7/5 276/7/5 275/7/5
f 278/7/5 276/7/5 277/7/5
f 279/4/5 272/4/5 271/4/5
f 280/4/5 272/4/5 279/4/5
f 283/4/5 282/4/5 281/4/5
f 283/4/5 281/4/5 280/4/5
f 284/4/5 282/4/5 283/4/5
f 287/3/5 286/3/5 285/3/5
f 288/3/5 286/3/5 287/3/5
f 291/3/5 290/3/5 289/3/5
f 292/3/5 290/3/5 291/3/5
f 293/4/6 294/4/6 297/4/6
f 294/7/6 295/7/6 298/7/6
f 297/4/6 294/4/6 298/4/6
f 298/7/6 295/7/6 299/7/6
f 296/4/6 297/4/6 301/4/6
f 301/4/6 297/4/6 302/4/6
f 299/7/6 300/7/6 304/7/6
f 304/7/6 300/7/6 305/7/6
f 302/4/6 303/4/6 306/4/6
f 303/4/6 304/4/6 306/4/6
f 306/4/6 304/4/6 307/4/6
f 308/4/6 309/4/6 312/4/6
f 309/7/6 310/7/6 313/7/6
f 312/4/6 309/4/6 313/4/6
f 313/7/6 310/7/6 314/7/6
f 315/7/6 316/7/6 317/7/6
f 317/7/6 316/7/6 318/7/6
f 311/4/6 312/4/6 319/4/6
f 319/4/6 312/4/6 320/4/6
f 321/4/6 322/4/6 323/4/6
f 320/4/6 321/4/6 323/4/6
f 323/4/6 322/4/6 324/4/6
f 325/4/6 326/4/6 329/4/6
f 326/7/6 327/7/6 330/7/6
f 329/4/6 326/4/6 330/4/6
f 330/7/6 327/7/6 331/7/6
f 331/7/6 327/7/6 332/7/6
f 328/4/6 329/4/6 334/4/6
f 334/4/6 329/4/6 335/4/6
f 332/7/6 333/7/6 336/7/6
f 336/7/6 333/7/6 337/7/6
f 335/4/6 336/4/6 338/4/6
f 338/4/6 336/4/6 339/4/6
f 340/3/6 341/3/6 342/3/6
f 342/3/6 341/3/6 343/3/6
f 344/3/6 345/3/6 346/3/6
f 346/3/6 345/3/6 347/3/6
f 348/2/6 349/2/6 350/2/6
f 350/2/6 349/2/6 351/2/6
