# MagicaVoxel @ Ephtracy

# group
o 

# material
mtllib leftArm.mtl
usemtl palette

# normals
vn -1 0 0
vn 1 0 0
vn 0 0 1
vn 0 0 -1
vn 0 -1 0
vn 0 1 0

# texcoords
vt 0.0253906 0.5
vt 0.123047 0.5
vt 0.201172 0.5
vt 0.212891 0.5
vt 0.216797 0.5
vt 0.240234 0.5
vt 0.244141 0.5

# verts
v -0.5 -0.6 0.4
v -0.5 -0.6 -0.4
v -0.5 -0.4 0.4
v -0.5 -0.4 -0.4
v -0.5 -0.2 0.4
v -0.5 -0.2 -0.4
v -0.5 -5.96046e-08 0.4
v -0.5 -5.96046e-08 0.2
v -0.5 -5.96046e-08 -0.2
v -0.5 -5.96046e-08 -0.4
v -0.5 0.2 0.4
v -0.5 0.2 0.2
v -0.5 0.2 -0.2
v -0.5 0.2 -0.4
v -0.5 0.4 0.4
v -0.5 0.4 -0.4
v -0.5 0.6 0.4
v -0.5 0.6 0.2
v -0.5 0.6 -0.2
v -0.5 0.6 -0.4
v -0.5 0.8 0.4
v -0.5 0.8 0.2
v -0.5 0.8 -0.2
v -0.5 0.8 -0.4
v -0.4 -0.6 0.5
v -0.4 -0.6 0.4
v -0.4 -0.6 -0.4
v -0.4 -0.6 -0.5
v -0.4 -0.4 0.5
v -0.4 -0.4 0.4
v -0.4 -0.4 -0.4
v -0.4 -0.4 -0.5
v -0.4 -0.2 0.5
v -0.4 -0.2 0.4
v -0.4 -0.2 -0.4
v -0.4 -0.2 -0.5
v -0.4 -5.96046e-08 0.5
v -0.4 -5.96046e-08 0.4
v -0.4 -5.96046e-08 0.2
v -0.4 -5.96046e-08 -0.2
v -0.4 -5.96046e-08 -0.4
v -0.4 -5.96046e-08 -0.5
v -0.4 0.2 0.5
v -0.4 0.2 0.4
v -0.4 0.2 0.2
v -0.4 0.2 -0.2
v -0.4 0.2 -0.4
v -0.4 0.2 -0.5
v -0.4 0.4 0.5
v -0.4 0.4 0.4
v -0.4 0.4 -0.4
v -0.4 0.4 -0.5
v -0.4 0.6 0.4
v -0.4 0.6 0.2
v -0.4 0.6 -0.2
v -0.4 0.6 -0.4
v -0.4 0.8 0.4
v -0.4 0.8 0.2
v -0.4 0.8 -0.2
v -0.4 0.8 -0.4
v -0.4 1 -0.2
v -0.4 1 -0.4
v -0.4 1.2 0.4
v -0.4 1.2 -0.2
v -0.4 1.8 0.4
v -0.4 1.8 -0.4
v 0.4 -0.6 0.5
v 0.4 -0.6 0.4
v 0.4 -0.6 -0.4
v 0.4 -0.6 -0.5
v 0.4 -0.4 0.5
v 0.4 -0.4 0.4
v 0.4 -0.4 -0.4
v 0.4 -0.4 -0.5
v 0.4 -0.2 0.5
v 0.4 -0.2 0.4
v 0.4 -0.2 -0.4
v 0.4 -0.2 -0.5
v 0.4 -5.96046e-08 0.5
v 0.4 -5.96046e-08 0.4
v 0.4 -5.96046e-08 -0.4
v 0.4 -5.96046e-08 -0.5
v 0.4 0.2 0.5
v 0.4 0.2 0.4
v 0.4 0.2 -0.4
v 0.4 0.2 -0.5
v 0.4 0.4 0.5
v 0.4 0.4 0.4
v 0.4 0.4 -0.4
v 0.4 0.4 -0.5
v 0.4 1 0
v 0.4 1 -0.2
v 0.4 1.2 0.4
v 0.4 1.2 0
v 0.4 1.6 -0.2
v 0.4 1.6 -0.4
v 0.4 1.8 0.4
v 0.4 1.8 -0.4
v 0.5 -0.6 0.4
v 0.5 -0.6 -0.4
v 0.5 -0.4 0.4
v 0.5 -0.4 -0.4
v 0.5 -0.2 0.4
v 0.5 -0.2 -0.4
v 0.5 -5.96046e-08 0.4
v 0.5 -5.96046e-08 -0.4
v 0.5 0.2 0.4
v 0.5 0.2 -0.4
v 0.5 0.4 0.4
v 0.5 0.4 -0.4
v -0.4 -0.6 0.5
v -0.4 -0.4 0.5
v -0.4 -0.2 0.5
v -0.4 -5.96046e-08 0.5
v -0.4 0.2 0.5
v -0.4 0.4 0.5
v -0.2 -0.6 0.5
v -0.2 -0.4 0.5
v -0.2 -0.2 0.5
v -0.2 -5.96046e-08 0.5
v -0.2 0.2 0.5
v -0.2 0.4 0.5
v 0.4 -0.6 0.5
v 0.4 -0.4 0.5
v 0.4 -0.2 0.5
v 0.4 -5.96046e-08 0.5
v 0.4 0.2 0.5
v 0.4 0.4 0.5
v -0.5 -0.6 0.4
v -0.5 -0.4 0.4
v -0.5 -0.2 0.4
v -0.5 -5.96046e-08 0.4
v -0.5 0.2 0.4
v -0.5 0.4 0.4
v -0.5 0.6 0.4
v -0.5 0.8 0.4
v -0.4 -0.6 0.4
v -0.4 -0.4 0.4
v -0.4 -0.2 0.4
v -0.4 -5.96046e-08 0.4
v -0.4 0.2 0.4
v -0.4 0.4 0.4
v -0.4 0.6 0.4
v -0.4 0.8 0.4
v -0.4 1.2 0.4
v -0.4 1.8 0.4
v -0.2 -0.4 0.4
v -0.2 -0.2 0.4
v -0.2 -5.96046e-08 0.4
v -0.2 0.2 0.4
v -0.2 0.4 0.4
v -0.2 0.8 0.4
v -0.2 1.2 0.4
v 0 0.8 0.4
v 0 1.2 0.4
v 0.4 -0.6 0.4
v 0.4 -0.4 0.4
v 0.4 -0.2 0.4
v 0.4 -5.96046e-08 0.4
v 0.4 0.2 0.4
v 0.4 0.4 0.4
v 0.4 1.2 0.4
v 0.4 1.8 0.4
v 0.5 -0.6 0.4
v 0.5 -0.4 0.4
v 0.5 -0.2 0.4
v 0.5 -5.96046e-08 0.4
v 0.5 0.2 0.4
v 0.5 0.4 0.4
v -0.5 -5.96046e-08 -0.2
v -0.5 0.2 -0.2
v -0.5 0.6 -0.2
v -0.5 0.8 -0.2
v -0.4 -5.96046e-08 -0.2
v -0.4 0.2 -0.2
v -0.4 0.6 -0.2
v -0.4 0.8 -0.2
v -0.5 -5.96046e-08 0.2
v -0.5 0.2 0.2
v -0.5 0.6 0.2
v -0.5 0.8 0.2
v -0.4 -5.96046e-08 0.2
v -0.4 0.2 0.2
v -0.4 0.6 0.2
v -0.4 0.8 0.2
v -0.5 -0.6 -0.4
v -0.5 -0.4 -0.4
v -0.5 -0.2 -0.4
v -0.5 -5.96046e-08 -0.4
v -0.5 0.2 -0.4
v -0.5 0.4 -0.4
v -0.5 0.6 -0.4
v -0.5 0.8 -0.4
v -0.4 -0.6 -0.4
v -0.4 -0.4 -0.4
v -0.4 -0.2 -0.4
v -0.4 -5.96046e-08 -0.4
v -0.4 0.2 -0.4
v -0.4 0.4 -0.4
v -0.4 0.6 -0.4
v -0.4 0.8 -0.4
v -0.4 1 -0.4
v -0.4 1.8 -0.4
v -0.3 -0.4 -0.4
v -0.3 -0.2 -0.4
v -0.3 -5.96046e-08 -0.4
v -0.3 0.2 -0.4
v -0.2 1 -0.4
v -0.2 1.2 -0.4
v 0 1 -0.4
v 0 1.2 -0.4
v 0.2 1 -0.4
v 0.2 1.6 -0.4
v 0.4 -0.6 -0.4
v 0.4 -0.4 -0.4
v 0.4 -0.2 -0.4
v 0.4 -5.96046e-08 -0.4
v 0.4 0.2 -0.4
v 0.4 0.4 -0.4
v 0.4 1.6 -0.4
v 0.4 1.8 -0.4
v 0.5 -0.6 -0.4
v 0.5 -0.4 -0.4
v 0.5 -0.2 -0.4
v 0.5 -5.96046e-08 -0.4
v 0.5 0.2 -0.4
v 0.5 0.4 -0.4
v -0.4 -0.6 -0.5
v -0.4 -0.4 -0.5
v -0.4 -0.2 -0.5
v -0.4 -5.96046e-08 -0.5
v -0.4 0.2 -0.5
v -0.4 0.4 -0.5
v 0.4 -0.6 -0.5
v 0.4 -0.4 -0.5
v 0.4 -0.2 -0.5
v 0.4 -5.96046e-08 -0.5
v 0.4 0.2 -0.5
v 0.4 0.4 -0.5
v -0.4 -0.6 0.5
v -0.2 -0.6 0.5
v 0.4 -0.6 0.5
v -0.5 -0.6 0.4
v -0.4 -0.6 0.4
v -0.2 -0.6 0.4
v 0.4 -0.6 0.4
v 0.5 -0.6 0.4
v -0.5 -0.6 -0.4
v -0.4 -0.6 -0.4
v 0.4 -0.6 -0.4
v 0.5 -0.6 -0.4
v -0.4 -0.6 -0.5
v 0.4 -0.6 -0.5
v -0.4 -0.2 0.5
v -0.2 -0.2 0.5
v 0.4 -0.2 0.5
v -0.5 -0.2 0.4
v -0.4 -0.2 0.4
v -0.2 -0.2 0.4
v 0.4 -0.2 0.4
v 0.5 -0.2 0.4
v -0.5 -0.2 -0.4
v -0.4 -0.2 -0.4
v -0.3 -0.2 -0.4
v 0.4 -0.2 -0.4
v 0.5 -0.2 -0.4
v -0.4 -0.2 -0.5
v 0.4 -0.2 -0.5
v -0.4 0.2 0.5
v -0.2 0.2 0.5
v 0.4 0.2 0.5
v -0.4 0.2 0.4
v -0.2 0.2 0.4
v 0.4 0.2 0.4
v 0.5 0.2 0.4
v -0.5 0.2 0.2
v -0.4 0.2 0.2
v -0.5 0.2 -0.2
v -0.4 0.2 -0.2
v -0.4 0.2 -0.4
v -0.3 0.2 -0.4
v 0.4 0.2 -0.4
v 0.5 0.2 -0.4
v -0.4 0.2 -0.5
v 0.4 0.2 -0.5
v -0.5 0.6 0.4
v -0.4 0.6 0.4
v -0.5 0.6 0.2
v -0.4 0.6 0.2
v -0.5 0.6 -0.2
v -0.4 0.6 -0.2
v -0.5 0.6 -0.4
v -0.4 0.6 -0.4
v -0.4 -0.4 0.5
v -0.2 -0.4 0.5
v 0.4 -0.4 0.5
v -0.5 -0.4 0.4
v -0.4 -0.4 0.4
v -0.2 -0.4 0.4
v 0.4 -0.4 0.4
v 0.5 -0.4 0.4
v -0.5 -0.4 -0.4
v -0.4 -0.4 -0.4
v -0.3 -0.4 -0.4
v 0.4 -0.4 -0.4
v 0.5 -0.4 -0.4
v -0.4 -0.4 -0.5
v 0.4 -0.4 -0.5
v -0.4 -5.96046e-08 0.5
v -0.2 -5.96046e-08 0.5
v 0.4 -5.96046e-08 0.5
v -0.4 -5.96046e-08 0.4
v -0.2 -5.96046e-08 0.4
v 0.4 -5.96046e-08 0.4
v 0.5 -5.96046e-08 0.4
v -0.5 -5.96046e-08 0.2
v -0.4 -5.96046e-08 0.2
v -0.5 -5.96046e-08 -0.2
v -0.4 -5.96046e-08 -0.2
v -0.4 -5.96046e-08 -0.4
v -0.3 -5.96046e-08 -0.4
v 0.4 -5.96046e-08 -0.4
v 0.5 -5.96046e-08 -0.4
v -0.4 -5.96046e-08 -0.5
v 0.4 -5.96046e-08 -0.5
v -0.4 0.4 0.5
v -0.2 0.4 0.5
v 0.4 0.4 0.5
v -0.5 0.4 0.4
v -0.4 0.4 0.4
v -0.2 0.4 0.4
v 0.4 0.4 0.4
v 0.5 0.4 0.4
v -0.5 0.4 -0.4
v -0.4 0.4 -0.4
v 0.4 0.4 -0.4
v 0.5 0.4 -0.4
v -0.4 0.4 -0.5
v 0.4 0.4 -0.5
v -0.5 0.8 0.4
v -0.4 0.8 0.4
v -0.5 0.8 0.2
v -0.4 0.8 0.2
v -0.5 0.8 -0.2
v -0.4 0.8 -0.2
v -0.5 0.8 -0.4
v -0.4 0.8 -0.4
v -0.4 1.8 0.4
v 0.4 1.8 0.4
v -0.4 1.8 -0.4
v 0.4 1.8 -0.4

# faces
f 3/7/1 2/7/1 1/7/1
f 4/7/1 2/7/1 3/7/1
f 7/7/1 6/7/1 5/7/1
f 8/7/1 6/7/1 7/7/1
f 9/7/1 6/7/1 8/7/1
f 10/7/1 6/7/1 9/7/1
f 11/3/1 8/3/1 7/3/1
f 12/3/1 8/3/1 11/3/1
f 13/3/1 10/3/1 9/3/1
f 14/3/1 10/3/1 13/3/1
f 15/7/1 12/7/1 11/7/1
f 15/7/1 13/7/1 12/7/1
f 15/7/1 14/7/1 13/7/1
f 16/7/1 14/7/1 15/7/1
f 21/3/1 18/3/1 17/3/1
f 22/3/1 18/3/1 21/3/1
f 23/3/1 20/3/1 19/3/1
f 24/3/1 20/3/1 23/3/1
f 29/7/1 26/7/1 25/7/1
f 30/7/1 26/7/1 29/7/1
f 31/4/1 28/4/1 27/4/1
f 32/4/1 28/4/1 31/4/1
f 34/3/1 31/3/1 30/3/1
f 35/3/1 31/3/1 34/3/1
f 37/7/1 34/7/1 33/7/1
f 38/7/1 34/7/1 37/7/1
f 41/4/1 36/4/1 35/4/1
f 42/4/1 36/4/1 41/4/1
f 45/3/1 40/3/1 39/3/1
f 46/3/1 40/3/1 45/3/1
f 49/7/1 44/7/1 43/7/1
f 50/7/1 44/7/1 49/7/1
f 51/4/1 48/4/1 47/4/1
f 52/4/1 48/4/1 51/4/1
f 53/5/1 51/5/1 50/5/1
f 54/5/1 51/5/1 53/5/1
f 55/5/1 51/5/1 54/5/1
f 56/5/1 51/5/1 55/5/1
f 58/5/1 55/5/1 54/5/1
f 59/5/1 55/5/1 58/5/1
f 61/5/1 58/5/1 57/5/1
f 61/5/1 60/5/1 59/5/1
f 61/5/1 59/5/1 58/5/1
f 62/5/1 60/5/1 61/5/1
f 63/5/1 61/5/1 57/5/1
f 64/2/1 62/2/1 61/2/1
f 64/5/1 61/5/1 63/5/1
f 65/2/1 64/2/1 63/2/1
f 66/2/1 62/2/1 64/2/1
f 66/2/1 64/2/1 65/2/1
f 67/4/2 68/4/2 71/4/2
f 71/4/2 68/4/2 72/4/2
f 69/4/2 70/4/2 73/4/2
f 73/4/2 70/4/2 74/4/2
f 72/6/2 73/6/2 76/6/2
f 76/6/2 73/6/2 77/6/2
f 75/4/2 76/4/2 79/4/2
f 79/4/2 76/4/2 80/4/2
f 77/4/2 78/4/2 81/4/2
f 81/4/2 78/4/2 82/4/2
f 80/6/2 81/6/2 84/6/2
f 84/6/2 81/6/2 85/6/2
f 83/4/2 84/4/2 87/4/2
f 87/4/2 84/4/2 88/4/2
f 85/4/2 86/4/2 89/4/2
f 89/4/2 86/4/2 90/4/2
f 88/5/2 89/5/2 91/5/2
f 91/5/2 89/5/2 92/5/2
f 88/5/2 91/5/2 93/5/2
f 91/2/2 92/2/2 94/2/2
f 93/5/2 91/5/2 94/5/2
f 92/5/2 89/5/2 95/5/2
f 94/2/2 92/2/2 95/2/2
f 93/2/2 94/2/2 95/2/2
f 95/5/2 89/5/2 96/5/2
f 93/2/2 95/2/2 97/2/2
f 95/2/2 96/2/2 97/2/2
f 97/2/2 96/2/2 98/2/2
f 99/4/2 100/4/2 101/4/2
f 101/4/2 100/4/2 102/4/2
f 103/4/2 104/4/2 105/4/2
f 105/4/2 104/4/2 106/4/2
f 107/4/2 108/4/2 109/4/2
f 109/4/2 108/4/2 110/4/2
f 117/7/3 112/7/3 111/7/3
f 118/7/3 112/7/3 117/7/3
f 119/7/3 114/7/3 113/7/3
f 120/7/3 114/7/3 119/7/3
f 121/7/3 116/7/3 115/7/3
f 122/7/3 116/7/3 121/7/3
f 123/4/3 118/4/3 117/4/3
f 124/4/3 118/4/3 123/4/3
f 125/4/3 120/4/3 119/4/3
f 126/4/3 120/4/3 125/4/3
f 127/4/3 122/4/3 121/4/3
f 128/4/3 122/4/3 127/4/3
f 137/7/3 130/7/3 129/7/3
f 138/7/3 130/7/3 137/7/3
f 139/7/3 132/7/3 131/7/3
f 140/3/3 133/3/3 132/3/3
f 140/7/3 132/7/3 139/7/3
f 141/7/3 134/7/3 133/7/3
f 141/3/3 133/3/3 140/3/3
f 142/7/3 134/7/3 141/7/3
f 143/3/3 136/3/3 135/3/3
f 144/3/3 136/3/3 143/3/3
f 147/3/3 139/3/3 138/3/3
f 148/3/3 139/3/3 147/3/3
f 149/3/3 141/3/3 140/3/3
f 150/3/3 141/3/3 149/3/3
f 151/5/3 145/5/3 144/5/3
f 151/5/3 144/5/3 143/5/3
f 151/5/3 143/5/3 142/5/3
f 152/5/3 145/5/3 151/5/3
f 153/2/3 146/2/3 145/2/3
f 153/5/3 145/5/3 152/5/3
f 154/5/3 152/5/3 151/5/3
f 154/2/3 153/2/3 152/2/3
f 155/2/3 146/2/3 153/2/3
f 155/2/3 153/2/3 154/2/3
f 157/6/3 148/6/3 147/6/3
f 158/6/3 148/6/3 157/6/3
f 159/6/3 150/6/3 149/6/3
f 160/6/3 150/6/3 159/6/3
f 161/5/3 154/5/3 151/5/3
f 161/5/3 155/5/3 154/5/3
f 162/2/3 146/2/3 155/2/3
f 162/5/3 155/5/3 161/5/3
f 163/2/3 146/2/3 162/2/3
f 164/4/3 157/4/3 156/4/3
f 165/4/3 157/4/3 164/4/3
f 166/4/3 159/4/3 158/4/3
f 167/4/3 159/4/3 166/4/3
f 168/4/3 161/4/3 160/4/3
f 169/4/3 161/4/3 168/4/3
f 174/3/3 171/3/3 170/3/3
f 175/3/3 171/3/3 174/3/3
f 176/3/3 173/3/3 172/3/3
f 177/3/3 173/3/3 176/3/3
f 178/3/4 179/3/4 182/3/4
f 182/3/4 179/3/4 183/3/4
f 180/3/4 181/3/4 184/3/4
f 184/3/4 181/3/4 185/3/4
f 186/7/4 187/7/4 194/7/4
f 194/7/4 187/7/4 195/7/4
f 188/7/4 189/7/4 196/7/4
f 189/3/4 190/3/4 197/3/4
f 196/7/4 189/7/4 197/7/4
f 190/7/4 191/7/4 198/7/4
f 197/3/4 190/3/4 198/3/4
f 198/7/4 191/7/4 199/7/4
f 192/3/4 193/3/4 200/3/4
f 200/3/4 193/3/4 201/3/4
f 195/3/4 196/3/4 204/3/4
f 204/3/4 196/3/4 205/3/4
f 197/3/4 198/3/4 206/3/4
f 206/3/4 198/3/4 207/3/4
f 202/2/4 203/2/4 208/2/4
f 201/5/4 202/5/4 208/5/4
f 200/5/4 201/5/4 208/5/4
f 199/5/4 200/5/4 208/5/4
f 208/2/4 203/2/4 209/2/4
f 199/5/4 208/5/4 210/5/4
f 208/5/4 209/5/4 210/5/4
f 209/2/4 203/2/4 211/2/4
f 210/5/4 209/5/4 211/5/4
f 199/5/4 210/5/4 212/5/4
f 210/2/4 211/2/4 212/2/4
f 211/2/4 203/2/4 213/2/4
f 212/2/4 211/2/4 213/2/4
f 204/6/4 205/6/4 215/6/4
f 215/6/4 205/6/4 216/6/4
f 206/6/4 207/6/4 217/6/4
f 217/6/4 207/6/4 218/6/4
f 199/5/4 212/5/4 219/5/4
f 212/5/4 213/5/4 219/5/4
f 213/2/4 203/2/4 220/2/4
f 219/5/4 213/5/4 220/5/4
f 220/2/4 203/2/4 221/2/4
f 214/4/4 215/4/4 222/4/4
f 222/4/4 215/4/4 223/4/4
f 216/4/4 217/4/4 224/4/4
f 224/4/4 217/4/4 225/4/4
f 218/4/4 219/4/4 226/4/4
f 226/4/4 219/4/4 227/4/4
f 228/4/4 229/4/4 234/4/4
f 234/4/4 229/4/4 235/4/4
f 230/4/4 231/4/4 236/4/4
f 236/4/4 231/4/4 237/4/4
f 232/4/4 233/4/4 238/4/4
f 238/4/4 233/4/4 239/4/4
f 244/7/5 241/7/5 240/7/5
f 245/4/5 242/4/5 241/4/5
f 245/7/5 241/7/5 244/7/5
f 246/4/5 242/4/5 245/4/5
f 248/7/5 244/7/5 243/7/5
f 249/1/5 245/1/5 244/1/5
f 249/7/5 244/7/5 248/7/5
f 249/1/5 246/1/5 245/1/5
f 250/4/5 247/4/5 246/4/5
f 250/1/5 246/1/5 249/1/5
f 251/4/5 247/4/5 250/4/5
f 252/4/5 250/4/5 249/4/5
f 253/4/5 250/4/5 252/4/5
f 258/7/5 255/7/5 254/7/5
f 259/4/5 256/4/5 255/4/5
f 259/7/5 255/7/5 258/7/5
f 260/4/5 256/4/5 259/4/5
f 262/7/5 258/7/5 257/7/5
f 263/7/5 258/7/5 262/7/5
f 265/4/5 261/4/5 260/4/5
f 266/4/5 261/4/5 265/4/5
f 267/4/5 264/4/5 263/4/5
f 267/4/5 265/4/5 264/4/5
f 268/4/5 265/4/5 267/4/5
f 272/7/5 270/7/5 269/7/5
f 273/4/5 271/4/5 270/4/5
f 273/7/5 270/7/5 272/7/5
f 274/4/5 271/4/5 273/4/5
f 278/7/5 277/7/5 276/7/5
f 279/7/5 277/7/5 278/7/5
f 282/4/5 275/4/5 274/4/5
f 283/4/5 275/4/5 282/4/5
f 284/4/5 281/4/5 280/4/5
f 284/4/5 282/4/5 281/4/5
f 285/4/5 282/4/5 284/4/5
f 288/3/5 287/3/5 286/3/5
f 289/3/5 287/3/5 288/3/5
f 292/3/5 291/3/5 290/3/5
f 293/3/5 291/3/5 292/3/5
f 294/7/6 295/7/6 298/7/6
f 295/4/6 296/4/6 299/4/6
f 298/7/6 295/7/6 299/7/6
f 299/4/6 296/4/6 300/4/6
f 297/7/6 298/7/6 302/7/6
f 302/7/6 298/7/6 303/7/6
f 300/4/6 301/4/6 305/4/6
f 305/4/6 301/4/6 306/4/6
f 303/4/6 304/4/6 307/4/6
f 304/4/6 305/4/6 307/4/6
f 307/4/6 305/4/6 308/4/6
f 309/7/6 310/7/6 312/7/6
f 310/4/6 311/4/6 313/4/6
f 312/7/6 310/7/6 313/7/6
f 313/4/6 311/4/6 314/4/6
f 316/7/6 317/7/6 318/7/6
f 318/7/6 317/7/6 319/7/6
f 314/4/6 315/4/6 322/4/6
f 322/4/6 315/4/6 323/4/6
f 320/4/6 321/4/6 324/4/6
f 321/4/6 322/4/6 324/4/6
f 324/4/6 322/4/6 325/4/6
f 326/7/6 327/7/6 330/7/6
f 327/4/6 328/4/6 331/4/6
f 330/7/6 327/7/6 331/7/6
f 331/4/6 328/4/6 332/4/6
f 329/7/6 330/7/6 334/7/6
f 334/7/6 330/7/6 335/7/6
f 332/4/6 333/4/6 336/4/6
f 336/4/6 333/4/6 337/4/6
f 335/4/6 336/4/6 338/4/6
f 338/4/6 336/4/6 339/4/6
f 340/3/6 341/3/6 342/3/6
f 342/3/6 341/3/6 343/3/6
f 344/3/6 345/3/6 346/3/6
f 346/3/6 345/3/6 347/3/6
f 348/2/6 349/2/6 350/2/6
f 350/2/6 349/2/6 351/2/6
